<svg xmlns="http://www.w3.org/2000/svg" viewBox="0 0 180 180">
  <defs>
    <linearGradient id="appleSunFill" x1="0%" y1="0%" x2="100%" y2="100%">
      <stop offset="0%" stop-color="#fff6bf" />
      <stop offset="100%" stop-color="#eed6ac" />
    </linearGradient>
  </defs>
  <rect width="180" height="180" rx="40" fill="#ecfbf4" />
  <ellipse cx="90" cy="90" rx="64" ry="72" fill="rgba(255,255,255,0.94)" stroke="#159066" stroke-width="6"/>
  <path d="M38 68c10-23 38-39 70-39 17 0 31 4 44 11-4-4-10-8-18-12-13-7-28-10-44-10-37 0-65 20-78 50Z" fill="url(#appleSunFill)" opacity="0.96"/>
  <path d="M44 74c18-21 40-31 66-31 14 0 27 3 40 8" fill="none" stroke="#cb8a2e" stroke-width="4.4" stroke-linecap="round"/>
  <path d="M52 78 38 58M62 71 51 48M74 65 67 42M88 63 86 40M102 65l4-22" fill="none" stroke="#cb8a2e" stroke-width="3.4" stroke-linecap="round" opacity="0.72"/>
  <path d="M48 112V54h12v39h20" fill="none" stroke="#159066" stroke-width="10" stroke-linecap="round" stroke-linejoin="round"/>
  <path d="M88 54v58M88 86l24-32M88 86l24 24" fill="none" stroke="#159066" stroke-width="10" stroke-linecap="round" stroke-linejoin="round"/>
  <path d="M122 62c4-6 10-9 19-9 8 0 14 3 18 9m-37 34c4 6 10 10 19 10 8 0 14-4 18-10m-37-17h31" fill="none" stroke="#cb8a2e" stroke-width="9" stroke-linecap="round" stroke-linejoin="round"/>
  <path d="M146 54v58M170 54v58M146 82h24" fill="none" stroke="#159066" stroke-width="10" stroke-linecap="round" stroke-linejoin="round"/>
</svg>
