<svg xmlns="http://www.w3.org/2000/svg" viewBox="0 0 180 180">
  <defs>
    <radialGradient id="appleCoreGlow" cx="40%" cy="22%" r="80%">
      <stop offset="0%" stop-color="#fff8b8" />
      <stop offset="55%" stop-color="#f8eb78" />
      <stop offset="100%" stop-color="#e5c84d" />
    </radialGradient>
  </defs>
  <rect width="180" height="180" rx="42" fill="#eef5ef"/>
  <ellipse cx="90" cy="92" rx="58" ry="70" fill="#fffdf1" stroke="#19A875" stroke-width="6"/>
  <ellipse cx="90" cy="92" rx="50" ry="62" fill="url(#appleCoreGlow)" opacity="0.96"/>
  <path d="M44 58c14-16 33-23 54-23 14 0 27 4 39 10" fill="none" stroke="#d39a2f" stroke-width="5" stroke-linecap="round"/>
  <path d="M39 84c20-28 40-40 65-46M45 100c17-21 31-32 50-39M54 113c13-16 24-25 39-31" fill="none" stroke="rgba(255,255,255,0.88)" stroke-width="7.6" stroke-linecap="round"/>
  <path d="M50 124V68h10v50h24" fill="none" stroke="#0f6e57" stroke-width="10" stroke-linecap="round" stroke-linejoin="round"/>
  <path d="M82 68v56M82 96l20-28M82 96l20 23" fill="none" stroke="#19A875" stroke-width="10" stroke-linecap="round" stroke-linejoin="round"/>
  <path d="M100 76c4-5 9-7 15-7 8 0 14 2 18 7m-33 31c4 5 10 8 17 8 8 0 14-3 18-8m-33-12h29" fill="none" stroke="#d35f27" stroke-width="9.4" stroke-linecap="round" stroke-linejoin="round"/>
  <path d="M118 70v54M145 70v54M118 96h27" fill="none" stroke="#1b3ba8" stroke-width="10" stroke-linecap="round" stroke-linejoin="round"/>
</svg>
