<svg xmlns="http://www.w3.org/2000/svg" viewBox="0 0 96 96">
  <defs>
    <radialGradient id="iconCoreGlow" cx="40%" cy="22%" r="80%">
      <stop offset="0%" stop-color="#fff8b8" />
      <stop offset="55%" stop-color="#f8eb78" />
      <stop offset="100%" stop-color="#e5c84d" />
    </radialGradient>
  </defs>
  <rect width="96" height="96" rx="22" fill="#eef5ef"/>
  <ellipse cx="48" cy="48" rx="32" ry="38" fill="#fffdf1" stroke="#19A875" stroke-width="3"/>
  <ellipse cx="48" cy="48" rx="28" ry="34" fill="url(#iconCoreGlow)" opacity="0.96"/>
  <path d="M24 32c8-9 18-13 30-13 8 0 15 2 22 6" fill="none" stroke="#d39a2f" stroke-width="2.6" stroke-linecap="round"/>
  <path d="M22 46c11-15 22-22 35-25M25 54c10-12 18-19 29-23" fill="none" stroke="rgba(255,255,255,0.88)" stroke-width="3.8" stroke-linecap="round"/>
  <path d="M28 68V38h6v28h13" fill="none" stroke="#0f6e57" stroke-width="5.5" stroke-linecap="round" stroke-linejoin="round"/>
  <path d="M46 38v32M46 54l12-16M46 54l12 14" fill="none" stroke="#19A875" stroke-width="5.5" stroke-linecap="round" stroke-linejoin="round"/>
  <path d="M56 43c2-2 5-4 8-4 4 0 8 1 10 4m-18 18c2 3 5 5 9 5 4 0 8-2 10-5m-18-8h16" fill="none" stroke="#d35f27" stroke-width="5.2" stroke-linecap="round" stroke-linejoin="round"/>
  <path d="M66 39v31M82 39v31M66 54h16" fill="none" stroke="#1b3ba8" stroke-width="5.5" stroke-linecap="round" stroke-linejoin="round"/>
</svg>
