<svg xmlns="http://www.w3.org/2000/svg" viewBox="0 0 84 84">
  <defs>
    <linearGradient id="sunFill" x1="0%" y1="0%" x2="100%" y2="100%">
      <stop offset="0%" stop-color="#fff6bf" />
      <stop offset="100%" stop-color="#eed6ac" />
    </linearGradient>
  </defs>
  <rect width="84" height="84" rx="18" fill="#ecfbf4" />
  <ellipse cx="42" cy="42" rx="30" ry="34" fill="rgba(255,255,255,0.92)" stroke="#159066" stroke-width="3"/>
  <path d="M18 31c5-11 18-18 33-18 8 0 15 2 21 5-2-2-5-4-9-6-6-3-13-5-21-5-18 0-31 10-37 24Z" fill="url(#sunFill)" opacity="0.96"/>
  <path d="M21 35c8-10 19-15 32-15 7 0 13 1 19 4" fill="none" stroke="#cb8a2e" stroke-width="2.4" stroke-linecap="round"/>
  <path d="M25 37 17 27M30 34 24 22M36 31 32 19M43 30 42 18M50 31 52 19" fill="none" stroke="#cb8a2e" stroke-width="1.9" stroke-linecap="round" opacity="0.72"/>
  <path d="M24 52V30h6v18h10" fill="none" stroke="#159066" stroke-width="5" stroke-linecap="round" stroke-linejoin="round"/>
  <path d="M41 30v24M41 44l10-14M41 44l10 10" fill="none" stroke="#159066" stroke-width="5" stroke-linecap="round" stroke-linejoin="round"/>
  <path d="M55 34c2-3 5-4 8-4 4 0 7 1 8 4m-16 14c2 3 5 5 8 5 4 0 7-2 8-5m-16-7h14" fill="none" stroke="#cb8a2e" stroke-width="4.5" stroke-linecap="round" stroke-linejoin="round"/>
  <path d="M66 30v24M76 30v24M66 42h10" fill="none" stroke="#159066" stroke-width="5" stroke-linecap="round" stroke-linejoin="round"/>
</svg>
